<?xml version="1.0" standalone="no"?>
<!DOCTYPE svg PUBLIC "-//W3C//DTD SVG 20010904//EN"
 "http://www.w3.org/TR/2001/REC-SVG-20010904/DTD/svg10.dtd">
<svg version="1.0" xmlns="http://www.w3.org/2000/svg"
 width="262.000000pt" height="192.000000pt" viewBox="0 0 262.000000 192.000000"
 preserveAspectRatio="xMidYMid meet">

<g transform="translate(0.000000,192.000000) scale(0.100000,-0.100000)"
fill="#000000" stroke="none">
<path d="M1215 1837 c-81 -32 -115 -85 -115 -180 0 -44 -3 -57 -15 -57 -29 0
-38 -43 -20 -86 31 -72 64 -179 65 -207 0 -36 -15 -63 -41 -78 -11 -6 -74 -17
-139 -24 -194 -23 -246 -63 -325 -243 l-36 -84 5 -126 c3 -69 8 -127 9 -129 9
-8 163 28 203 48 24 11 72 27 106 34 35 7 79 20 98 28 35 15 35 15 -50 16 -47
0 -114 -4 -150 -9 -67 -10 -93 -2 -88 28 6 32 -25 22 -66 -20 l-42 -44 -2 48
c-2 40 3 53 29 83 34 39 48 44 50 18 1 -12 4 -9 8 7 13 45 107 67 196 45 25
-6 28 -5 18 6 -7 7 -41 14 -75 16 -82 5 -110 11 -103 23 3 6 1 10 -4 10 -6 0
-11 5 -11 10 0 6 9 10 20 10 10 0 23 6 27 13 11 18 72 27 133 20 35 -4 58 -14
83 -37 18 -17 42 -36 53 -42 28 -17 14 -25 -68 -36 -85 -12 -89 -12 -145 -2
-31 5 -43 3 -43 -6 0 -6 9 -14 20 -17 19 -5 20 -6 3 -20 -16 -13 -16 -13 5 -3
35 17 156 37 267 45 55 3 141 13 190 22 149 25 317 6 423 -49 12 -6 22 -20 22
-30 0 -15 -4 -17 -19 -9 -10 6 -53 9 -95 8 -55 -1 -79 2 -85 11 -10 17 -102
-12 -324 -100 -148 -59 -278 -98 -328 -98 -24 0 -39 -16 -39 -41 0 -8 24 -6
88 7 20 4 22 2 16 -22 l-7 -26 46 35 c54 41 114 62 214 76 42 5 84 17 100 29
72 50 111 63 176 56 51 -5 76 -1 141 20 43 14 97 26 120 26 27 0 36 3 27 9 -7
5 -11 13 -7 19 3 6 2 13 -3 17 -10 5 -7 36 4 55 11 18 79 11 125 -13 37 -18
45 -26 42 -47 -1 -14 4 -45 11 -69 13 -40 14 -42 30 -26 9 9 17 27 17 41 0 30
14 31 27 1 8 -17 7 -32 -3 -56 -16 -38 -18 -61 -5 -61 4 0 16 25 26 56 23 73
11 136 -48 259 -73 151 -124 186 -294 204 -151 16 -183 36 -183 116 0 47 10
70 33 80 18 8 22 19 24 60 1 28 5 69 9 93 5 38 4 44 -15 49 -18 4 -21 13 -21
53 0 91 -33 148 -105 181 -46 21 -143 24 -190 6z m186 -20 c55 -29 89 -78 88
-126 l-1 -36 -7 31 c-15 62 -32 70 -56 24 -15 -29 -15 -30 5 -30 26 0 49 -45
32 -62 -9 -9 -12 -8 -12 6 0 9 -4 15 -9 12 -5 -4 -11 -1 -13 6 -4 10 -13 10
-45 0 -50 -15 -72 -37 -54 -55 10 -9 15 -8 26 6 13 19 32 7 20 -13 -4 -6 6
-10 22 -10 19 0 24 3 14 9 -8 5 -9 11 -3 15 6 3 13 2 17 -4 4 -6 17 -4 36 5
26 14 29 14 29 0 0 -8 9 -15 20 -15 13 0 18 -5 13 -16 -3 -8 -12 -13 -19 -10
-8 3 -14 4 -14 2 0 -3 -3 -12 -6 -21 -4 -9 -3 -15 2 -14 5 1 17 -1 26 -5 14
-7 15 -11 5 -28 -9 -16 -9 -22 1 -25 6 -3 12 -14 11 -26 0 -22 0 -22 -9 1 -12
27 -34 30 -27 2 3 -14 0 -20 -11 -22 -10 0 -23 -2 -29 -2 -7 -1 -20 -11 -29
-24 -19 -27 -75 -52 -119 -52 -24 0 -37 7 -49 25 -23 36 -20 45 13 39 31 -7
97 11 107 28 4 6 -1 6 -14 -1 -26 -14 -99 -14 -107 -1 -4 6 13 10 44 10 27 0
61 4 75 10 16 6 35 6 50 0 27 -10 39 -1 51 39 5 17 4 22 -6 19 -7 -2 -13 -12
-15 -22 -3 -24 -14 -34 -14 -13 0 18 -37 47 -60 47 -11 0 -8 -6 8 -18 22 -17
22 -19 7 -32 -9 -8 -44 -16 -77 -18 -54 -4 -63 -2 -78 18 -14 19 -20 21 -38
11 -30 -16 -28 -7 3 13 23 15 27 15 41 1 8 -8 13 -19 10 -23 -3 -5 18 -1 47 8
29 9 51 20 50 24 -2 5 -27 10 -55 12 -74 6 -71 6 -95 -1 -17 -6 -25 -1 -37 24
-22 41 -21 43 20 35 28 -5 38 -3 49 12 8 11 14 14 15 7 0 -19 37 -16 44 3 6
16 -10 45 -22 41 -4 -1 -27 5 -51 12 -42 14 -44 14 -62 -10 -22 -28 -23 -47
-8 -139 7 -43 16 -67 22 -63 7 4 8 -1 3 -12 -4 -12 3 -31 20 -57 30 -43 38
-48 28 -15 -6 20 -3 19 22 -8 29 -30 36 -47 12 -28 -7 6 -20 10 -28 10 -8 0
-27 4 -42 8 -26 7 -26 6 -22 -37 3 -23 10 -62 16 -86 14 -53 32 -62 132 -62
82 0 159 22 180 52 11 15 18 18 33 10 10 -6 66 -16 123 -22 121 -13 196 -43
234 -93 37 -49 107 -200 113 -245 l5 -41 -45 42 c-74 69 -201 99 -270 63 -29
-16 -32 -16 -120 8 -104 27 -164 29 -297 7 -157 -26 -187 -26 -214 -1 -12 11
-41 37 -65 58 -43 37 -45 37 -129 36 -65 0 -87 -4 -96 -16 -6 -9 -20 -17 -31
-20 -21 -4 -26 -36 -11 -69 5 -12 1 -18 -18 -23 -14 -3 -44 -24 -67 -46 l-42
-39 5 44 c7 61 84 211 134 261 49 50 107 70 224 79 47 4 99 13 116 20 26 11
32 10 40 -2 23 -37 23 134 0 207 -10 30 -17 60 -17 65 0 6 3 55 7 110 8 151
26 189 106 225 60 27 134 26 189 -3z m-194 -217 c1 -12 -4 -20 -13 -20 -12 0
-12 4 -4 20 6 11 12 20 13 20 2 0 3 -9 4 -20z m-117 -32 c0 -18 -2 -20 -9 -8
-6 8 -7 18 -5 22 9 14 14 9 14 -14z m380 -262 c0 -24 3 -57 6 -73 5 -28 3 -31
-44 -51 -30 -13 -72 -22 -101 -22 -56 0 -62 9 -35 48 13 19 22 22 45 17 27 -6
31 -3 44 30 9 20 13 40 10 45 -4 6 0 10 8 10 8 0 22 9 32 20 27 30 35 25 35
-24z m-100 -21 c-7 -8 -17 -15 -22 -15 -6 0 -5 7 2 15 7 8 17 15 22 15 6 0 5
-7 -2 -15z m-143 -111 c-3 -3 -12 -4 -19 -1 -8 3 -5 6 6 6 11 1 17 -2 13 -5z"/>
<path d="M1490 1499 c0 -5 5 -7 10 -4 6 3 10 8 10 11 0 2 -4 4 -10 4 -5 0 -10
-5 -10 -11z"/>
<path d="M1352 629 c-13 -51 -1 -57 74 -39 51 13 56 12 84 -8 l28 -21 31 29
c27 25 29 29 14 34 -19 5 -210 46 -217 46 -2 0 -8 -18 -14 -41z"/>
<path d="M1265 643 c-21 -4 -32 -45 -122 -432 -5 -22 -4 -23 28 -16 19 4 35 8
36 9 4 4 103 423 103 436 0 10 -8 11 -45 3z"/>
<path d="M1876 599 l-35 -42 9 32 c7 25 6 31 -6 31 -26 0 -54 -20 -54 -38 0
-9 -14 -69 -29 -132 -16 -63 -28 -116 -27 -118 8 -8 66 13 66 24 0 7 11 48 25
91 52 165 103 193 67 36 -11 -48 -24 -97 -28 -107 -6 -17 -4 -18 22 -12 16 4
34 13 40 21 15 21 58 220 51 239 -4 10 -18 16 -36 16 -22 0 -38 -10 -65 -41z"/>
<path d="M1050 607 c-97 -47 -186 -178 -211 -311 -15 -81 -4 -133 36 -173 44
-44 90 -44 174 -2 58 29 62 33 56 58 -9 36 -10 36 -48 12 -43 -26 -83 -27 -97
-2 -28 53 3 208 60 293 33 50 99 90 140 86 18 -2 26 5 37 30 l13 32 -57 0
c-38 -1 -73 -8 -103 -23z"/>
<path d="M751 611 c-17 -5 -34 -28 -62 -81 l-38 -75 -1 68 c0 64 -1 67 -24 67
-13 0 -28 -6 -33 -12 -13 -18 -56 -208 -49 -215 12 -13 25 13 44 92 l20 80 2
-55 c2 -30 4 -59 5 -65 2 -5 3 -16 4 -22 3 -32 24 -6 62 77 23 50 44 89 46 87
2 -2 -6 -39 -16 -82 -11 -44 -19 -80 -18 -81 1 -1 11 2 23 6 16 6 25 28 43
109 13 56 22 103 20 105 -2 1 -15 0 -28 -3z"/>
<path d="M1629 580 c-60 -31 -112 -115 -127 -205 -8 -43 -42 -70 -107 -85 -43
-10 -60 7 -50 49 5 24 16 35 53 51 58 26 81 46 98 86 26 63 -5 96 -68 70 -101
-43 -195 -238 -143 -296 10 -11 29 -20 42 -20 25 0 103 37 142 68 23 19 24 19
42 1 27 -27 38 -24 85 25 l43 45 -6 -35 -6 -34 30 10 c28 10 31 17 62 143 17
73 31 135 31 140 0 14 -86 6 -121 -13z m51 -28 c0 -16 -38 -118 -59 -160 -25
-50 -51 -56 -51 -12 0 40 34 127 61 156 22 24 49 32 49 16z m-230 -58 c0 -26
-19 -53 -50 -69 -32 -17 -38 -9 -19 28 27 51 69 77 69 41z"/>
<path d="M841 554 c-19 -25 -21 -26 -16 -6 7 24 -6 30 -22 10 -6 -7 -15 -35
-22 -63 -7 -27 -14 -58 -17 -68 -4 -14 -1 -18 11 -15 10 2 25 24 36 52 10 27
28 59 40 72 11 12 19 28 17 35 -2 7 -13 1 -27 -17z"/>
<path d="M824 446 c-8 -22 3 -33 18 -18 9 9 9 15 0 24 -9 9 -13 7 -18 -6z"/>
</g>
</svg>
