<?xml version="1.0" standalone="no"?>
<!DOCTYPE svg PUBLIC "-//W3C//DTD SVG 20010904//EN"
 "http://www.w3.org/TR/2001/REC-SVG-20010904/DTD/svg10.dtd">
<svg version="1.0" xmlns="http://www.w3.org/2000/svg"
 width="305.000000pt" height="165.000000pt" viewBox="0 0 305.000000 165.000000"
 preserveAspectRatio="xMidYMid meet">

<g transform="translate(0.000000,165.000000) scale(0.100000,-0.100000)"
fill="#000000" stroke="none">
<path d="M1477 1250 c-20 -4 -40 -10 -43 -13 -3 -3 -37 -138 -75 -299 -39
-161 -72 -301 -75 -312 -5 -16 -2 -17 37 -11 24 4 49 12 55 18 6 7 42 143 78
302 37 160 70 298 72 308 3 9 2 16 -3 16 -4 -1 -25 -5 -46 -9z"/>
<path d="M2373 1235 c-18 -8 -47 -34 -65 -59 -17 -25 -33 -44 -35 -43 -1 2 2
20 8 41 6 21 9 39 7 40 -2 2 -21 -1 -43 -6 l-40 -8 -44 -188 c-24 -103 -46
-192 -48 -199 -3 -8 7 -8 43 1 l47 12 23 84 c42 161 85 250 120 250 20 0 18
-18 -17 -168 -17 -73 -29 -135 -26 -138 11 -11 86 17 91 34 23 81 66 280 66
306 0 55 -27 67 -87 41z"/>
<path d="M2517 1215 c4 -23 -9 -94 -37 -213 l-43 -179 -296 -72 c-163 -39
-303 -72 -311 -71 -13 0 -13 -1 0 -10 28 -18 76 -11 357 57 l282 68 41 168
c44 185 47 214 25 257 -20 39 -25 38 -18 -5z"/>
<path d="M1200 1213 c-190 -66 -342 -308 -343 -544 -1 -91 28 -153 83 -182 50
-26 135 -17 214 22 98 50 101 53 80 93 -9 18 -18 34 -19 36 -2 2 -24 -11 -51
-27 -59 -38 -93 -39 -125 -5 -21 22 -24 35 -23 94 2 129 80 319 157 386 46 38
96 56 137 47 25 -5 31 -1 50 36 11 23 18 46 15 51 -10 15 -125 11 -175 -7z"/>
<path d="M765 1205 c-5 -2 -22 -6 -36 -9 -21 -4 -34 -24 -75 -108 l-49 -103
-5 87 c-3 48 -9 90 -12 94 -4 3 -23 3 -41 0 l-35 -7 -31 -132 c-17 -72 -34
-142 -37 -154 -5 -18 -2 -23 14 -23 24 0 22 -4 53 132 13 60 27 108 32 108 4
0 7 -49 7 -110 0 -153 15 -148 99 34 30 64 56 114 58 112 2 -2 -8 -49 -22
-104 -14 -55 -25 -105 -25 -111 0 -12 29 -14 46 -3 12 8 86 303 75 301 -3 0
-10 -2 -16 -4z"/>
<path d="M2009 1176 c-104 -37 -193 -157 -219 -296 -12 -62 -21 -75 -69 -100
-57 -28 -111 -41 -132 -29 -28 15 -23 119 6 119 33 0 139 65 166 102 56 78 48
148 -17 148 -82 0 -164 -68 -229 -191 -46 -88 -60 -190 -31 -234 33 -50 141
-24 251 60 29 23 51 33 53 26 2 -6 11 -18 20 -27 34 -34 96 3 164 97 16 23 16
22 3 -29 l-13 -53 36 7 c20 3 41 10 45 14 5 4 29 92 53 196 36 148 42 189 32
195 -19 13 -78 10 -119 -5z m31 -55 c0 -20 -54 -171 -79 -220 -31 -62 -54 -82
-72 -64 -29 29 39 223 93 268 29 25 58 33 58 16z m-327 -96 c-1 -15 -12 -39
-25 -52 -25 -27 -77 -57 -85 -50 -7 8 37 87 63 114 30 30 50 25 47 -12z"/>
<path d="M884 1138 c-12 -12 -27 -32 -33 -43 -10 -17 -11 -15 -5 13 5 31 4 33
-17 30 -21 -3 -26 -14 -47 -106 -13 -57 -22 -106 -19 -109 3 -2 14 -2 24 1 12
4 24 27 36 66 11 38 31 75 53 100 20 21 34 47 32 55 -2 14 -7 13 -24 -7z"/>
<path d="M840 962 c0 -26 11 -34 27 -21 20 17 16 39 -7 39 -13 0 -20 -7 -20
-18z"/>
<path d="M2538 930 c-25 -26 -29 -36 -24 -63 7 -37 47 -77 77 -77 77 0 118 92
64 145 -34 35 -78 33 -117 -5z m106 -12 c34 -48 2 -112 -51 -106 -34 4 -67 48
-58 77 17 53 81 70 109 29z"/>
<path d="M2560 875 c0 -25 5 -45 10 -45 6 0 10 9 10 20 0 11 3 20 8 20 4 0 13
-9 20 -20 7 -11 17 -20 23 -20 8 0 7 5 -1 15 -10 12 -10 18 0 30 20 24 4 45
-35 45 -35 0 -35 0 -35 -45z m65 20 c0 -5 -10 -11 -22 -13 -16 -2 -23 2 -23
13 0 11 7 15 23 13 12 -2 22 -7 22 -13z"/>
<path d="M593 821 c-183 -41 -237 -60 -221 -76 7 -7 430 85 446 97 17 15 15
28 -5 27 -10 -1 -109 -22 -220 -48z"/>
<path d="M1751 697 c-21 -27 -139 -79 -192 -86 l-54 -7 41 -13 c52 -17 123 2
207 55 53 33 56 37 40 50 -23 17 -28 17 -42 1z"/>
<path d="M1437 611 c-5 -25 -13 -30 -59 -41 -32 -8 -71 -28 -100 -51 -102 -81
-234 -122 -319 -101 -39 10 -42 9 -25 -3 28 -21 79 -28 152 -22 75 6 165 46
230 101 25 21 62 40 94 48 49 13 55 17 63 47 6 25 5 36 -5 42 -21 14 -25 11
-31 -20z"/>
</g>
</svg>
